<svg xmlns="http://www.w3.org/2000/svg" viewBox="0 0 800 480" font-family="'Helvetica Neue', Arial, sans-serif">
  <rect width="800" height="480" rx="12" fill="#F5F4F0"/>
  <text x="400" y="38" text-anchor="middle" font-size="18" font-weight="bold" fill="#1A1917">出願前の準備チェックリスト</text>
  <text x="400" y="58" text-anchor="middle" font-size="11" fill="#6B6760">余裕を持って3月中に完了させよう</text>
  <rect x="40" y="80" width="350" height="175" rx="10" fill="#FEFEFC" stroke="#1B4F3A" stroke-width="2"/>
  <rect x="40" y="80" width="350" height="36" rx="10" fill="#1B4F3A"/>
  <rect x="40" y="98" width="350" height="18" fill="#1B4F3A"/>
  <text x="215" y="103" text-anchor="middle" font-size="13" font-weight="bold" fill="#FEFEFC">J-OSLER関連</text>
  <text x="70" y="140" font-size="11" fill="#1A1917">&#x2610; 症例登録120件(7期生~)が完了</text>
  <text x="70" y="163" font-size="11" fill="#1A1917">&#x2610; 病歴要約29篇の二次評価が完了</text>
  <text x="70" y="186" font-size="11" fill="#1A1917">&#x2610; JMECC修了証を取得済み</text>
  <text x="70" y="209" font-size="11" fill="#1A1917">&#x2610; 講習会要件を全て満たしている</text>
  <text x="70" y="232" font-size="11" fill="#1A1917">&#x2610; 修了認定見込みの承認を依頼済み</text>
  <rect x="410" y="80" width="350" height="175" rx="10" fill="#FEFEFC" stroke="#3D5A80" stroke-width="2"/>
  <rect x="410" y="80" width="350" height="36" rx="10" fill="#3D5A80"/>
  <rect x="410" y="98" width="350" height="18" fill="#3D5A80"/>
  <text x="585" y="103" text-anchor="middle" font-size="13" font-weight="bold" fill="#FEFEFC">出願手続き</text>
  <text x="440" y="140" font-size="11" fill="#1A1917">&#x2610; J-OSLERのオンライン出願を完了</text>
  <text x="440" y="163" font-size="11" fill="#1A1917">&#x2610; 受験料30,000円を振り込み済み</text>
  <text x="440" y="186" font-size="11" fill="#1A1917">&#x2610; 指導医・プログラム責任者の承認済み</text>
  <text x="440" y="209" font-size="11" fill="#1A1917">&#x2610; 登録情報(住所・氏名)に誤りなし</text>
  <text x="440" y="232" font-size="11" fill="#1A1917">&#x2610; 4/15(水) 23:59の締切を厳守</text>
  <rect x="40" y="275" width="350" height="175" rx="10" fill="#FEFEFC" stroke="#92400E" stroke-width="2"/>
  <rect x="40" y="275" width="350" height="36" rx="10" fill="#92400E"/>
  <rect x="40" y="293" width="350" height="18" fill="#92400E"/>
  <text x="215" y="298" text-anchor="middle" font-size="13" font-weight="bold" fill="#FEFEFC">試験当日の準備</text>
  <text x="70" y="335" font-size="11" fill="#1A1917">&#x2610; 受験票を確認・保管</text>
  <text x="70" y="358" font-size="11" fill="#1A1917">&#x2610; B/HBの鉛筆+消しゴム</text>
  <text x="70" y="381" font-size="11" fill="#1A1917">&#x2610; 腕時計(スマートウォッチ不可)</text>
  <text x="70" y="404" font-size="11" fill="#1A1917">&#x2610; 昼食(試験中の飲食不可)</text>
  <text x="70" y="427" font-size="11" fill="#1A1917">&#x2610; 上着(空調対策)</text>
  <rect x="410" y="275" width="350" height="175" rx="10" fill="#FEFEFC" stroke="#7F1D1D" stroke-width="2"/>
  <rect x="410" y="275" width="350" height="36" rx="10" fill="#7F1D1D"/>
  <rect x="410" y="293" width="350" height="18" fill="#7F1D1D"/>
  <text x="585" y="298" text-anchor="middle" font-size="13" font-weight="bold" fill="#FEFEFC">宿泊・交通</text>
  <text x="440" y="335" font-size="11" fill="#1A1917">&#x2610; 試験会場(東京or神戸)を確認</text>
  <text x="440" y="358" font-size="11" fill="#1A1917">&#x2610; 新幹線・飛行機を早めに予約</text>
  <text x="440" y="381" font-size="11" fill="#1A1917">&#x2610; 会場近くのホテルを確保</text>
  <text x="440" y="404" font-size="11" fill="#1A1917">&#x2610; 会場までのルートを下調べ</text>
  <text x="440" y="427" font-size="11" fill="#1A1917">&#x2610; 8:40までに入室(厳守)</text>
  <text x="400" y="472" text-anchor="middle" font-size="9" fill="#6B6760">© 内科ナビ naikanavi.com</text>
</svg>