<svg xmlns="http://www.w3.org/2000/svg" viewBox="0 0 800 320" font-family="'Noto Sans JP', 'Hiragino Sans', sans-serif">
  <defs>
    <filter id="shadow2" x="-4%" y="-4%" width="108%" height="112%">
      <feDropShadow dx="0" dy="2" stdDeviation="3" flood-color="#000" flood-opacity="0.08"/>
    </filter>
  </defs>
  <rect width="800" height="320" rx="16" fill="#F5F4F0"/>
  <text x="400" y="38" text-anchor="middle" font-size="18" font-weight="bold" fill="#1A1917">病歴要約コピペの5ステップ</text>
  <g transform="translate(20,60)">
    <rect width="138" height="190" rx="10" fill="#FEFEFC" filter="url(#shadow2)"/>
    <circle cx="69" cy="30" r="18" fill="#1B4F3A"/>
    <text x="69" y="36" text-anchor="middle" font-size="14" font-weight="bold" fill="#FEFEFC">1</text>
    <text x="69" y="70" text-anchor="middle" font-size="13" font-weight="bold" fill="#1A1917">Word下書き</text>
    <text x="69" y="92" text-anchor="middle" font-size="11" fill="#6B6760">テンプレートに</text>
    <text x="69" y="108" text-anchor="middle" font-size="11" fill="#6B6760">沿って各項目を</text>
    <text x="69" y="124" text-anchor="middle" font-size="11" fill="#6B6760">記入する</text>
    <rect x="19" y="145" width="100" height="24" rx="12" fill="#E8F0EC"/>
    <text x="69" y="162" text-anchor="middle" font-size="10" fill="#1B4F3A">A4 2枚目安</text>
  </g>
  <text x="170" y="155" text-anchor="middle" font-size="20" fill="#DDD9D2">&#9654;</text>
  <g transform="translate(175,60)">
    <rect width="138" height="190" rx="10" fill="#FEFEFC" filter="url(#shadow2)"/>
    <circle cx="69" cy="30" r="18" fill="#1E3A5F"/>
    <text x="69" y="36" text-anchor="middle" font-size="14" font-weight="bold" fill="#FEFEFC">2</text>
    <text x="69" y="70" text-anchor="middle" font-size="13" font-weight="bold" fill="#1A1917">書式整備</text>
    <text x="69" y="92" text-anchor="middle" font-size="11" fill="#6B6760">検査所見の</text>
    <text x="69" y="108" text-anchor="middle" font-size="11" fill="#6B6760">単位統一と</text>
    <text x="69" y="124" text-anchor="middle" font-size="11" fill="#6B6760">フォーマット確認</text>
    <rect x="19" y="145" width="100" height="24" rx="12" fill="#E8F0EC"/>
    <text x="69" y="162" text-anchor="middle" font-size="10" fill="#1E3A5F">検索置換活用</text>
  </g>
  <text x="325" y="155" text-anchor="middle" font-size="20" fill="#DDD9D2">&#9654;</text>
  <g transform="translate(330,60)">
    <rect width="138" height="190" rx="10" fill="#FEFEFC" filter="url(#shadow2)"/>
    <circle cx="69" cy="30" r="18" fill="#4338CA"/>
    <text x="69" y="36" text-anchor="middle" font-size="14" font-weight="bold" fill="#FEFEFC">3</text>
    <text x="69" y="70" text-anchor="middle" font-size="13" font-weight="bold" fill="#1A1917">項目別コピペ</text>
    <text x="69" y="92" text-anchor="middle" font-size="11" fill="#6B6760">J-OSLERの各欄に</text>
    <text x="69" y="108" text-anchor="middle" font-size="11" fill="#6B6760">項目ごとに</text>
    <text x="69" y="124" text-anchor="middle" font-size="11" fill="#6B6760">貼り付ける</text>
    <rect x="19" y="145" width="100" height="24" rx="12" fill="#FEF3C7"/>
    <text x="69" y="162" text-anchor="middle" font-size="10" fill="#92400E">誤削除に注意</text>
  </g>
  <text x="480" y="155" text-anchor="middle" font-size="20" fill="#DDD9D2">&#9654;</text>
  <g transform="translate(485,60)">
    <rect width="138" height="190" rx="10" fill="#FEFEFC" filter="url(#shadow2)"/>
    <circle cx="69" cy="30" r="18" fill="#92400E"/>
    <text x="69" y="36" text-anchor="middle" font-size="14" font-weight="bold" fill="#FEFEFC">4</text>
    <text x="69" y="70" text-anchor="middle" font-size="13" font-weight="bold" fill="#1A1917">PDF確認</text>
    <text x="69" y="92" text-anchor="middle" font-size="11" fill="#6B6760">一時保存後に</text>
    <text x="69" y="108" text-anchor="middle" font-size="11" fill="#6B6760">PDF出力して</text>
    <text x="69" y="124" text-anchor="middle" font-size="11" fill="#6B6760">分量・体裁を確認</text>
    <rect x="19" y="145" width="100" height="24" rx="12" fill="#FEE2E2"/>
    <text x="69" y="162" text-anchor="middle" font-size="10" fill="#991B1B">A4 2枚以内</text>
  </g>
  <text x="635" y="155" text-anchor="middle" font-size="20" fill="#DDD9D2">&#9654;</text>
  <g transform="translate(640,60)">
    <rect width="138" height="190" rx="10" fill="#FEFEFC" filter="url(#shadow2)"/>
    <circle cx="69" cy="30" r="18" fill="#166534"/>
    <text x="69" y="36" text-anchor="middle" font-size="14" font-weight="bold" fill="#FEFEFC">5</text>
    <text x="69" y="70" text-anchor="middle" font-size="13" font-weight="bold" fill="#1A1917">修正・再保存</text>
    <text x="69" y="92" text-anchor="middle" font-size="11" fill="#6B6760">問題があれば</text>
    <text x="69" y="108" text-anchor="middle" font-size="11" fill="#6B6760">Wordで修正し</text>
    <text x="69" y="124" text-anchor="middle" font-size="11" fill="#6B6760">再度コピペ</text>
    <rect x="19" y="145" width="100" height="24" rx="12" fill="#DCFCE7"/>
    <text x="69" y="162" text-anchor="middle" font-size="10" fill="#166534">Word同期必須</text>
  </g>
  <text x="400" y="305" text-anchor="middle" font-size="10" fill="#6B6760">© 内科ナビ naikanavi.com</text>
</svg>
