<svg xmlns="http://www.w3.org/2000/svg" viewBox="0 0 800 300" fill="none">
  <rect width="800" height="300" rx="16" fill="#F5F4F0"/>
  
  <!-- Title -->
  <text x="400" y="38" text-anchor="middle" font-family="'Noto Sans JP', sans-serif" font-size="18" font-weight="700" fill="#1A1917">自己省察の3つの型</text>
  
  <!-- Pattern 1 -->
  <rect x="30" y="60" width="235" height="200" rx="12" fill="#FEFEFC" stroke="#DDD9D2" stroke-width="1.5"/>
  <circle cx="147" cy="100" r="22" fill="#E8F0EC"/>
  <text x="147" y="106" text-anchor="middle" font-family="'Noto Sans JP', sans-serif" font-size="20">💡</text>
  <text x="147" y="140" text-anchor="middle" font-family="'Noto Sans JP', sans-serif" font-size="15" font-weight="700" fill="#1B4F3A">学びの気づき型</text>
  <text x="147" y="165" text-anchor="middle" font-family="'Noto Sans JP', sans-serif" font-size="11" fill="#6B6760">新たに学んだことを記述</text>
  <text x="147" y="182" text-anchor="middle" font-family="'Noto Sans JP', sans-serif" font-size="11" fill="#6B6760">最も汎用性が高い</text>
  
  <rect x="55" y="200" width="180" height="24" rx="4" fill="#E8F0EC"/>
  <text x="145" y="216" text-anchor="middle" font-family="'Noto Sans JP', sans-serif" font-size="11" font-weight="600" fill="#1B4F3A">ほぼ全症例で使える</text>
  
  <rect x="55" y="232" width="180" height="18" rx="9" fill="#1B4F3A" opacity="0.1"/>
  <rect x="55" y="232" width="160" height="18" rx="9" fill="#1B4F3A" opacity="0.3"/>
  <text x="145" y="244" text-anchor="middle" font-family="'Noto Sans JP', sans-serif" font-size="9" font-weight="600" fill="#1B4F3A">使用頻度 ★★★★★</text>
  
  <!-- Pattern 2 -->
  <rect x="283" y="60" width="235" height="200" rx="12" fill="#FEFEFC" stroke="#DDD9D2" stroke-width="1.5"/>
  <circle cx="400" cy="100" r="22" fill="#FEF3C7"/>
  <text x="400" y="106" text-anchor="middle" font-family="'Noto Sans JP', sans-serif" font-size="20">🔄</text>
  <text x="400" y="140" text-anchor="middle" font-family="'Noto Sans JP', sans-serif" font-size="15" font-weight="700" fill="#92400E">改善・反省型</text>
  <text x="400" y="165" text-anchor="middle" font-family="'Noto Sans JP', sans-serif" font-size="11" fill="#6B6760">改善点や反省を記述</text>
  <text x="400" y="182" text-anchor="middle" font-family="'Noto Sans JP', sans-serif" font-size="11" fill="#6B6760">指導医から好印象</text>
  
  <rect x="308" y="200" width="180" height="24" rx="4" fill="#FEF3C7"/>
  <text x="398" y="216" text-anchor="middle" font-family="'Noto Sans JP', sans-serif" font-size="11" font-weight="600" fill="#92400E">成長の姿勢を示せる</text>
  
  <rect x="308" y="232" width="180" height="18" rx="9" fill="#92400E" opacity="0.1"/>
  <rect x="308" y="232" width="120" height="18" rx="9" fill="#92400E" opacity="0.3"/>
  <text x="398" y="244" text-anchor="middle" font-family="'Noto Sans JP', sans-serif" font-size="9" font-weight="600" fill="#92400E">使用頻度 ★★★☆☆</text>
  
  <!-- Pattern 3 -->
  <rect x="536" y="60" width="235" height="200" rx="12" fill="#FEFEFC" stroke="#DDD9D2" stroke-width="1.5"/>
  <circle cx="653" cy="100" r="22" fill="#EDE9FE"/>
  <text x="653" y="106" text-anchor="middle" font-family="'Noto Sans JP', sans-serif" font-size="20">📚</text>
  <text x="653" y="140" text-anchor="middle" font-family="'Noto Sans JP', sans-serif" font-size="15" font-weight="700" fill="#4338CA">知識の深化型</text>
  <text x="653" y="165" text-anchor="middle" font-family="'Noto Sans JP', sans-serif" font-size="11" fill="#6B6760">文献的な学びを記述</text>
  <text x="653" y="182" text-anchor="middle" font-family="'Noto Sans JP', sans-serif" font-size="11" fill="#6B6760">症例報告のスキルにも</text>
  
  <rect x="561" y="200" width="180" height="24" rx="4" fill="#EDE9FE"/>
  <text x="651" y="216" text-anchor="middle" font-family="'Noto Sans JP', sans-serif" font-size="11" font-weight="600" fill="#4338CA">病歴要約の予行練習に</text>
  
  <rect x="561" y="232" width="180" height="18" rx="9" fill="#4338CA" opacity="0.1"/>
  <rect x="561" y="232" width="80" height="18" rx="9" fill="#4338CA" opacity="0.3"/>
  <text x="651" y="244" text-anchor="middle" font-family="'Noto Sans JP', sans-serif" font-size="9" font-weight="600" fill="#4338CA">使用頻度 ★★☆☆☆</text>
  
  <!-- Footer -->
  <text x="400" y="290" text-anchor="middle" font-family="'Noto Sans JP', sans-serif" font-size="10" fill="#C8C4BC">© 内科ナビ naikanavi.com</text>
</svg>
