<svg xmlns="http://www.w3.org/2000/svg" viewBox="0 0 800 520" fill="none">
  <rect width="800" height="520" rx="16" fill="#FEFEFC"/>
  <rect x="0" y="0" width="800" height="56" rx="16" fill="#1B4F3A"/>
  <rect x="0" y="28" width="800" height="28" fill="#1B4F3A"/>
  <text x="400" y="38" text-anchor="middle" fill="#FFFFFF" font-family="sans-serif" font-weight="bold" font-size="20">勉強開始時期 3パターン比較</text>

  <!-- Timeline header -->
  <text x="210" y="90" text-anchor="middle" fill="#6B6760" font-family="sans-serif" font-size="12">12月</text>
  <text x="290" y="90" text-anchor="middle" fill="#6B6760" font-family="sans-serif" font-size="12">1月</text>
  <text x="370" y="90" text-anchor="middle" fill="#6B6760" font-family="sans-serif" font-size="12">2月</text>
  <text x="450" y="90" text-anchor="middle" fill="#6B6760" font-family="sans-serif" font-size="12">3月</text>
  <text x="530" y="90" text-anchor="middle" fill="#6B6760" font-family="sans-serif" font-size="12">4月</text>
  <text x="610" y="90" text-anchor="middle" fill="#6B6760" font-family="sans-serif" font-size="12">5月</text>

  <!-- Exam day marker -->
  <rect x="640" y="75" width="80" height="24" rx="6" fill="#991B1B"/>
  <text x="680" y="91" text-anchor="middle" fill="#FFFFFF" font-family="sans-serif" font-weight="bold" font-size="11">5/31 試験日</text>

  <!-- Vertical grid -->
  <line x1="170" y1="100" x2="170" y2="440" stroke="#E8E5DF" stroke-width="1" stroke-dasharray="4"/>
  <line x1="250" y1="100" x2="250" y2="440" stroke="#E8E5DF" stroke-width="1" stroke-dasharray="4"/>
  <line x1="330" y1="100" x2="330" y2="440" stroke="#E8E5DF" stroke-width="1" stroke-dasharray="4"/>
  <line x1="410" y1="100" x2="410" y2="440" stroke="#E8E5DF" stroke-width="1" stroke-dasharray="4"/>
  <line x1="490" y1="100" x2="490" y2="440" stroke="#E8E5DF" stroke-width="1" stroke-dasharray="4"/>
  <line x1="570" y1="100" x2="570" y2="440" stroke="#E8E5DF" stroke-width="1" stroke-dasharray="4"/>
  <line x1="650" y1="100" x2="650" y2="440" stroke="#991B1B" stroke-width="2" stroke-dasharray="6"/>

  <!-- Plan A: 半年プラン -->
  <rect x="20" y="115" width="120" height="90" rx="8" fill="#E8F0EC"/>
  <text x="80" y="140" text-anchor="middle" fill="#1B4F3A" font-family="sans-serif" font-weight="bold" font-size="14">半年プラン</text>
  <text x="80" y="160" text-anchor="middle" fill="#6B6760" font-family="sans-serif" font-size="11">12月〜</text>
  <text x="80" y="178" text-anchor="middle" fill="#6B6760" font-family="sans-serif" font-size="11">安全重視派</text>
  <text x="80" y="196" text-anchor="middle" fill="#1B4F3A" font-family="sans-serif" font-size="11">★おすすめ度: B</text>

  <!-- Plan A bars -->
  <rect x="170" y="125" width="160" height="30" rx="6" fill="#E8F0EC" stroke="#1B4F3A" stroke-width="1"/>
  <text x="250" y="145" text-anchor="middle" fill="#1B4F3A" font-family="sans-serif" font-size="11">助走: 過去問1周</text>
  <rect x="330" y="125" width="160" height="30" rx="6" fill="#1B4F3A" opacity="0.6"/>
  <text x="410" y="145" text-anchor="middle" fill="#FFFFFF" font-family="sans-serif" font-size="11">基礎固め: QB/QC</text>
  <rect x="490" y="125" width="160" height="30" rx="6" fill="#1B4F3A"/>
  <text x="570" y="145" text-anchor="middle" fill="#FFFFFF" font-family="sans-serif" font-size="11">仕上げ+模試</text>

  <!-- Plan B: 3ヶ月プラン -->
  <rect x="20" y="235" width="120" height="90" rx="8" fill="#DCFCE7"/>
  <text x="80" y="258" text-anchor="middle" fill="#166534" font-family="sans-serif" font-weight="bold" font-size="14">3ヶ月プラン</text>
  <text x="80" y="278" text-anchor="middle" fill="#6B6760" font-family="sans-serif" font-size="11">2月〜</text>
  <text x="80" y="296" text-anchor="middle" fill="#6B6760" font-family="sans-serif" font-size="11">最もスタンダード</text>
  <text x="80" y="314" text-anchor="middle" fill="#166534" font-family="sans-serif" font-size="11">★おすすめ度: A</text>

  <!-- Plan B bars -->
  <rect x="330" y="245" width="80" height="30" rx="6" fill="#DCFCE7" stroke="#166534" stroke-width="1"/>
  <text x="370" y="265" text-anchor="middle" fill="#166534" font-family="sans-serif" font-size="11">過去問1周</text>
  <rect x="410" y="245" width="80" height="30" rx="6" fill="#166534" opacity="0.6"/>
  <text x="450" y="265" text-anchor="middle" fill="#FFFFFF" font-family="sans-serif" font-size="11">QB集中</text>
  <rect x="490" y="245" width="160" height="30" rx="6" fill="#166534"/>
  <text x="570" y="265" text-anchor="middle" fill="#FFFFFF" font-family="sans-serif" font-size="11">追い込み+模試</text>

  <!-- Recommended badge -->
  <rect x="695" y="240" width="80" height="24" rx="12" fill="#166534"/>
  <text x="735" y="256" text-anchor="middle" fill="#FFFFFF" font-family="sans-serif" font-weight="bold" font-size="10">おすすめ!</text>

  <!-- Plan C: 1ヶ月プラン -->
  <rect x="20" y="355" width="120" height="90" rx="8" fill="#FEF3C7"/>
  <text x="80" y="378" text-anchor="middle" fill="#92400E" font-family="sans-serif" font-weight="bold" font-size="14">1ヶ月プラン</text>
  <text x="80" y="398" text-anchor="middle" fill="#6B6760" font-family="sans-serif" font-size="11">5月〜</text>
  <text x="80" y="416" text-anchor="middle" fill="#6B6760" font-family="sans-serif" font-size="11">上級者限定</text>
  <text x="80" y="434" text-anchor="middle" fill="#92400E" font-family="sans-serif" font-size="11">★おすすめ度: C</text>

  <!-- Plan C bars -->
  <rect x="570" y="365" width="80" height="30" rx="6" fill="#92400E" opacity="0.6"/>
  <text x="610" y="385" text-anchor="middle" fill="#FFFFFF" font-family="sans-serif" font-size="10">弱点集中</text>

  <!-- Warning -->
  <rect x="490" y="405" width="160" height="24" rx="6" fill="#FEE2E2"/>
  <text x="570" y="421" text-anchor="middle" fill="#991B1B" font-family="sans-serif" font-size="10">リスク高: 非推奨</text>

  <!-- Legend -->
  <rect x="170" y="460" width="12" height="12" rx="3" fill="#E8F0EC" stroke="#1B4F3A" stroke-width="1"/>
  <text x="190" y="471" fill="#6B6760" font-family="sans-serif" font-size="11">助走期間（1日15〜30分）</text>
  <rect x="370" y="460" width="12" height="12" rx="3" fill="#1B4F3A" opacity="0.6"/>
  <text x="390" y="471" fill="#6B6760" font-family="sans-serif" font-size="11">基礎固め（1日30分〜1時間）</text>
  <rect x="590" y="460" width="12" height="12" rx="3" fill="#1B4F3A"/>
  <text x="610" y="471" fill="#6B6760" font-family="sans-serif" font-size="11">追い込み（1日2〜3時間）</text>

  <!-- Footer -->
  <text x="400" y="505" text-anchor="middle" fill="#C8C4BC" font-family="sans-serif" font-size="11">© 内科ナビ naikanavi.com</text>
</svg>
