<svg xmlns="http://www.w3.org/2000/svg" viewBox="0 0 800 540" font-family="'Noto Sans JP', sans-serif">
  <rect width="800" height="540" fill="#F5F4F0" rx="12"/>
  <text x="400" y="40" text-anchor="middle" font-size="18" font-weight="bold" fill="#1A1917">内科専門医試験 教材の全体像</text>
  <rect x="280" y="60" width="240" height="50" rx="25" fill="#1B4F3A"/>
  <text x="400" y="90" text-anchor="middle" font-size="14" fill="#fff" font-weight="bold">内科専門医試験 合格</text>
  <line x1="400" y1="110" x2="400" y2="140" stroke="#1B4F3A" stroke-width="2"/>
  <line x1="150" y1="140" x2="650" y2="140" stroke="#1B4F3A" stroke-width="2"/>
  <line x1="150" y1="140" x2="150" y2="160" stroke="#1B4F3A" stroke-width="2"/>
  <line x1="340" y1="140" x2="340" y2="160" stroke="#1B4F3A" stroke-width="2"/>
  <line x1="510" y1="140" x2="510" y2="160" stroke="#1B4F3A" stroke-width="2"/>
  <line x1="650" y1="140" x2="650" y2="160" stroke="#1B4F3A" stroke-width="2"/>
  <rect x="65" y="160" width="170" height="44" rx="8" fill="#FEFEFC" stroke="#1B4F3A" stroke-width="2"/>
  <text x="150" y="177" text-anchor="middle" font-size="11" fill="#6B6760">STEP 1</text>
  <text x="150" y="194" text-anchor="middle" font-size="13" font-weight="bold" fill="#1A1917">問題集で演習</text>
  <rect x="255" y="160" width="170" height="44" rx="8" fill="#FEFEFC" stroke="#1B4F3A" stroke-width="2"/>
  <text x="340" y="177" text-anchor="middle" font-size="11" fill="#6B6760">STEP 2</text>
  <text x="340" y="194" text-anchor="middle" font-size="13" font-weight="bold" fill="#1A1917">講義動画で理解</text>
  <rect x="425" y="160" width="170" height="44" rx="8" fill="#FEFEFC" stroke="#1B4F3A" stroke-width="2"/>
  <text x="510" y="177" text-anchor="middle" font-size="11" fill="#6B6760">STEP 3</text>
  <text x="510" y="194" text-anchor="middle" font-size="13" font-weight="bold" fill="#1A1917">参考書で整理</text>
  <rect x="575" y="160" width="150" height="44" rx="8" fill="#FEFEFC" stroke="#1B4F3A" stroke-width="2"/>
  <text x="650" y="177" text-anchor="middle" font-size="11" fill="#6B6760">STEP 4</text>
  <text x="650" y="194" text-anchor="middle" font-size="13" font-weight="bold" fill="#1A1917">苦手分析</text>
  <rect x="20" y="224" width="155" height="56" rx="6" fill="#E8F0EC" stroke="#DDD9D2"/>
  <text x="97" y="247" text-anchor="middle" font-size="11" font-weight="bold" fill="#1B4F3A">QBオンライン</text>
  <text x="97" y="268" text-anchor="middle" font-size="10" fill="#6B6760">約500問 / 22,000円</text>
  <rect x="185" y="224" width="155" height="56" rx="6" fill="#E8F0EC" stroke="#DDD9D2"/>
  <text x="262" y="247" text-anchor="middle" font-size="11" font-weight="bold" fill="#1B4F3A">THE内科専門医問題集</text>
  <text x="262" y="268" text-anchor="middle" font-size="10" fill="#6B6760">約600問 / 約22,000円</text>
  <rect x="20" y="290" width="155" height="56" rx="6" fill="#E8F0EC" stroke="#DDD9D2"/>
  <text x="97" y="313" text-anchor="middle" font-size="11" font-weight="bold" fill="#1B4F3A">過去問題集(学会公式)</text>
  <text x="97" y="334" text-anchor="middle" font-size="10" fill="#6B6760">334題 / 約10,000円</text>
  <rect x="185" y="290" width="155" height="56" rx="6" fill="#E8F0EC" stroke="#DDD9D2"/>
  <text x="262" y="313" text-anchor="middle" font-size="11" font-weight="bold" fill="#1B4F3A">Quick Check</text>
  <text x="262" y="334" text-anchor="middle" font-size="10" fill="#6B6760">一問一答 / YN付録</text>
  <rect x="355" y="224" width="155" height="56" rx="6" fill="#FEF3C7" stroke="#DDD9D2"/>
  <text x="432" y="247" text-anchor="middle" font-size="11" font-weight="bold" fill="#92400E">CareNeTV</text>
  <text x="432" y="268" text-anchor="middle" font-size="10" fill="#6B6760">月額5,500円</text>
  <rect x="355" y="290" width="155" height="56" rx="6" fill="#FEF3C7" stroke="#DDD9D2"/>
  <text x="432" y="313" text-anchor="middle" font-size="11" font-weight="bold" fill="#92400E">Q-Assist</text>
  <text x="432" y="334" text-anchor="middle" font-size="10" fill="#6B6760">QBセット44,000円</text>
  <rect x="520" y="224" width="120" height="122" rx="6" fill="#DCFCE7" stroke="#DDD9D2"/>
  <text x="580" y="253" text-anchor="middle" font-size="11" font-weight="bold" fill="#166534">イヤーノート</text>
  <text x="580" y="274" text-anchor="middle" font-size="10" fill="#6B6760">30,360円</text>
  <line x1="580" y1="286" x2="580" y2="296" stroke="#DDD9D2"/>
  <text x="580" y="314" text-anchor="middle" font-size="11" font-weight="bold" fill="#166534">WEB内科塾</text>
  <text x="580" y="335" text-anchor="middle" font-size="10" fill="#6B6760">1,600問超</text>
  <rect x="650" y="224" width="130" height="122" rx="6" fill="#1B4F3A" stroke="#155230" stroke-width="2"/>
  <text x="715" y="253" text-anchor="middle" font-size="12" font-weight="bold" fill="#fff">内科ナビ</text>
  <text x="715" y="273" text-anchor="middle" font-size="10" fill="#E8F0EC">問題演習</text>
  <line x1="672" y1="286" x2="758" y2="286" stroke="#E8F0EC" stroke-width="0.5"/>
  <text x="715" y="306" text-anchor="middle" font-size="10" fill="#E8F0EC">苦手分野を自動判定</text>
  <text x="715" y="322" text-anchor="middle" font-size="10" fill="#E8F0EC">苦手克服モード</text>
  <text x="715" y="338" text-anchor="middle" font-size="10" fill="#E8F0EC">ブラウザのみ</text>
  <rect x="30" y="378" width="740" height="70" rx="8" fill="#FEFEFC" stroke="#1B4F3A" stroke-width="1.5"/>
  <text x="400" y="400" text-anchor="middle" font-size="13" font-weight="bold" fill="#1B4F3A">おすすめの組み合わせ</text>
  <text x="400" y="424" text-anchor="middle" font-size="12" fill="#1A1917">QBオンライン + CareNeTV 2ヶ月 + 内科ナビ問題演習 = コスパ最強セット</text>
  <text x="400" y="442" text-anchor="middle" font-size="11" fill="#6B6760">問題演習で基礎固め → 動画で苦手補強 → 内科ナビで弱点可視化</text>
  <text x="400" y="525" text-anchor="middle" font-size="10" fill="#6B6760">© 内科ナビ naikanavi.com</text>
</svg>
