<svg xmlns="http://www.w3.org/2000/svg" viewBox="0 0 800 560" font-family="'Noto Sans JP', sans-serif">
  <rect width="800" height="560" fill="#F5F4F0" rx="12"/>
  <text x="400" y="36" text-anchor="middle" font-size="18" font-weight="bold" fill="#1A1917">教材比較表 - 費用 / 問題数 / 特徴</text>
  <rect x="30" y="55" width="740" height="36" rx="4" fill="#1B4F3A"/>
  <text x="145" y="78" text-anchor="middle" font-size="12" fill="#fff" font-weight="bold">教材名</text>
  <text x="300" y="78" text-anchor="middle" font-size="12" fill="#fff" font-weight="bold">価格(税込)</text>
  <text x="400" y="78" text-anchor="middle" font-size="12" fill="#fff" font-weight="bold">問題数</text>
  <text x="500" y="78" text-anchor="middle" font-size="12" fill="#fff" font-weight="bold">形式</text>
  <text x="640" y="78" text-anchor="middle" font-size="12" fill="#fff" font-weight="bold">おすすめ度</text>
  <rect x="30" y="95" width="740" height="50" rx="0" fill="#FEFEFC"/>
  <text x="145" y="117" text-anchor="middle" font-size="12" font-weight="bold" fill="#1A1917">QBオンライン</text>
  <text x="145" y="134" text-anchor="middle" font-size="10" fill="#6B6760">メディックメディア</text>
  <text x="300" y="124" text-anchor="middle" font-size="12" fill="#1A1917">22,000円</text>
  <text x="400" y="124" text-anchor="middle" font-size="12" fill="#1A1917">約500問</text>
  <text x="500" y="124" text-anchor="middle" font-size="12" fill="#1A1917">Web/アプリ</text>
  <text x="640" y="124" text-anchor="middle" font-size="16" fill="#1B4F3A">★★★★★</text>
  <rect x="30" y="149" width="740" height="50" rx="0" fill="#F0EDE7"/>
  <text x="145" y="171" text-anchor="middle" font-size="12" font-weight="bold" fill="#1A1917">THE内科専門医問題集</text>
  <text x="145" y="188" text-anchor="middle" font-size="10" fill="#6B6760">医学書院 Ver.2 全3巻</text>
  <text x="300" y="178" text-anchor="middle" font-size="12" fill="#1A1917">約22,440円</text>
  <text x="400" y="178" text-anchor="middle" font-size="12" fill="#1A1917">約600問</text>
  <text x="500" y="178" text-anchor="middle" font-size="12" fill="#1A1917">書籍+Web</text>
  <text x="640" y="178" text-anchor="middle" font-size="16" fill="#1B4F3A">★★★★★</text>
  <rect x="30" y="203" width="740" height="50" rx="0" fill="#FEFEFC"/>
  <text x="145" y="225" text-anchor="middle" font-size="12" font-weight="bold" fill="#1A1917">過去問題集(学会公式)</text>
  <text x="145" y="242" text-anchor="middle" font-size="10" fill="#6B6760">第1集+第2集</text>
  <text x="300" y="232" text-anchor="middle" font-size="12" fill="#1A1917">約10,000円</text>
  <text x="400" y="232" text-anchor="middle" font-size="12" fill="#1A1917">334題</text>
  <text x="500" y="232" text-anchor="middle" font-size="12" fill="#1A1917">書籍</text>
  <text x="640" y="232" text-anchor="middle" font-size="16" fill="#1B4F3A">★★★★☆</text>
  <rect x="30" y="257" width="740" height="50" rx="0" fill="#F0EDE7"/>
  <text x="145" y="279" text-anchor="middle" font-size="12" font-weight="bold" fill="#1A1917">Quick Check</text>
  <text x="145" y="296" text-anchor="middle" font-size="10" fill="#6B6760">イヤーノート付録</text>
  <text x="300" y="286" text-anchor="middle" font-size="12" fill="#1A1917">YN購入で付属</text>
  <text x="400" y="286" text-anchor="middle" font-size="12" fill="#1A1917">一問一答</text>
  <text x="500" y="286" text-anchor="middle" font-size="12" fill="#1A1917">Web/アプリ</text>
  <text x="640" y="286" text-anchor="middle" font-size="16" fill="#1B4F3A">★★★☆☆</text>
  <!-- 内科ナビ行 -->
  <rect x="30" y="311" width="740" height="50" rx="0" fill="#E8F0EC"/>
  <text x="145" y="333" text-anchor="middle" font-size="12" font-weight="bold" fill="#1B4F3A">内科ナビ 問題演習</text>
  <text x="145" y="350" text-anchor="middle" font-size="10" fill="#1B4F3A">苦手分野自動判定</text>
  <text x="300" y="340" text-anchor="middle" font-size="12" fill="#1A1917">従量課金</text>
  <text x="400" y="340" text-anchor="middle" font-size="12" fill="#1A1917">5問/1クレジット</text>
  <text x="500" y="340" text-anchor="middle" font-size="12" fill="#1A1917">Web(ブラウザ)</text>
  <text x="640" y="340" text-anchor="middle" font-size="16" fill="#1B4F3A">★★★★☆</text>
  <!-- 講義動画セクション -->
  <rect x="30" y="369" width="740" height="36" rx="4" fill="#92400E"/>
  <text x="400" y="392" text-anchor="middle" font-size="12" fill="#fff" font-weight="bold">講義動画</text>
  <rect x="30" y="409" width="740" height="50" rx="0" fill="#FEFEFC"/>
  <text x="145" y="431" text-anchor="middle" font-size="12" font-weight="bold" fill="#1A1917">CareNeTV</text>
  <text x="145" y="448" text-anchor="middle" font-size="10" fill="#6B6760">バーチャル模試 / 出るズバ</text>
  <text x="300" y="438" text-anchor="middle" font-size="12" fill="#1A1917">月額5,500円</text>
  <text x="400" y="438" text-anchor="middle" font-size="12" fill="#1A1917">180問(模試)</text>
  <text x="500" y="438" text-anchor="middle" font-size="12" fill="#1A1917">動画</text>
  <text x="640" y="438" text-anchor="middle" font-size="16" fill="#92400E">★★★★★</text>
  <rect x="30" y="463" width="740" height="50" rx="0" fill="#F0EDE7"/>
  <text x="145" y="485" text-anchor="middle" font-size="12" font-weight="bold" fill="#1A1917">Q-Assist</text>
  <text x="145" y="502" text-anchor="middle" font-size="10" fill="#6B6760">メディックメディア</text>
  <text x="300" y="492" text-anchor="middle" font-size="12" fill="#1A1917">33,000円</text>
  <text x="400" y="492" text-anchor="middle" font-size="12" fill="#1A1917">-</text>
  <text x="500" y="492" text-anchor="middle" font-size="12" fill="#1A1917">動画+PDF</text>
  <text x="640" y="492" text-anchor="middle" font-size="16" fill="#92400E">★★★★☆</text>
  <text x="400" y="546" text-anchor="middle" font-size="10" fill="#6B6760">© 内科ナビ naikanavi.com</text>
</svg>
