<svg xmlns="http://www.w3.org/2000/svg" viewBox="0 0 800 450" font-family="'Noto Sans JP', sans-serif">
  <rect width="800" height="450" fill="#F5F4F0" rx="12"/>
  <text x="400" y="36" text-anchor="middle" font-size="18" font-weight="bold" fill="#1A1917">予算別おすすめ教材セット</text>
  <!-- ミニマム -->
  <rect x="30" y="55" width="230" height="360" rx="10" fill="#FEFEFC" stroke="#DDD9D2" stroke-width="1.5"/>
  <rect x="30" y="55" width="230" height="48" rx="10" fill="#E8F0EC"/>
  <text x="145" y="76" text-anchor="middle" font-size="14" font-weight="bold" fill="#1B4F3A">ミニマムセット</text>
  <text x="145" y="95" text-anchor="middle" font-size="20" font-weight="bold" fill="#1B4F3A">約3万円</text>
  <rect x="50" y="118" width="190" height="36" rx="6" fill="#E8F0EC" stroke="#1B4F3A" stroke-width="1"/>
  <text x="60" y="140" font-size="11" fill="#1B4F3A">&#x2713; QBオンライン</text>
  <text x="220" y="140" text-anchor="end" font-size="10" fill="#6B6760">22,000円</text>
  <rect x="50" y="162" width="190" height="36" rx="6" fill="#FEF3C7" stroke="#92400E" stroke-width="1"/>
  <text x="60" y="184" font-size="11" fill="#92400E">&#x2713; CareNeTV 2ヶ月</text>
  <text x="220" y="184" text-anchor="end" font-size="10" fill="#6B6760">11,000円</text>
  <rect x="50" y="206" width="190" height="36" rx="6" fill="#1B4F3A"/>
  <text x="60" y="228" font-size="11" fill="#fff">&#x2713; 内科ナビ問題演習</text>
  <text x="220" y="228" text-anchor="end" font-size="10" fill="#E8F0EC">従量課金</text>
  <rect x="50" y="256" width="190" height="26" rx="6" fill="#F0EDE7"/>
  <text x="145" y="274" text-anchor="middle" font-size="10" fill="#6B6760">国試時代のYNがあれば代用可</text>
  <text x="145" y="306" text-anchor="middle" font-size="11" fill="#1A1917">忙しい人 / コスパ重視</text>
  <text x="145" y="324" text-anchor="middle" font-size="11" fill="#1A1917">1ヶ月集中で合格を目指す</text>
  <rect x="50" y="344" width="190" height="44" rx="8" fill="#1B4F3A"/>
  <text x="145" y="364" text-anchor="middle" font-size="11" fill="#fff">最低限で確実に合格!</text>
  <text x="145" y="382" text-anchor="middle" font-size="10" fill="#E8F0EC">問題演習+直前対策+苦手分析</text>
  <!-- スタンダード -->
  <rect x="285" y="55" width="230" height="360" rx="10" fill="#FEFEFC" stroke="#1B4F3A" stroke-width="2"/>
  <rect x="285" y="55" width="230" height="48" rx="10" fill="#1B4F3A"/>
  <text x="400" y="76" text-anchor="middle" font-size="14" font-weight="bold" fill="#fff">スタンダードセット</text>
  <text x="400" y="95" text-anchor="middle" font-size="20" font-weight="bold" fill="#fff">約5〜6万円</text>
  <rect x="305" y="118" width="190" height="36" rx="6" fill="#E8F0EC" stroke="#1B4F3A" stroke-width="1"/>
  <text x="315" y="140" font-size="11" fill="#1B4F3A">&#x2713; Q-Assist+QBセット</text>
  <text x="475" y="140" text-anchor="end" font-size="10" fill="#6B6760">44,000円</text>
  <rect x="305" y="162" width="190" height="36" rx="6" fill="#FEF3C7" stroke="#92400E" stroke-width="1"/>
  <text x="315" y="184" font-size="11" fill="#92400E">&#x2713; CareNeTV 2ヶ月</text>
  <text x="475" y="184" text-anchor="end" font-size="10" fill="#6B6760">11,000円</text>
  <rect x="305" y="206" width="190" height="36" rx="6" fill="#DCFCE7" stroke="#166534" stroke-width="1"/>
  <text x="315" y="228" font-size="11" fill="#166534">&#x2713; 学会過去問集</text>
  <text x="475" y="228" text-anchor="end" font-size="10" fill="#6B6760">約10,000円</text>
  <rect x="305" y="250" width="190" height="36" rx="6" fill="#1B4F3A"/>
  <text x="315" y="272" font-size="11" fill="#fff">&#x2713; 内科ナビ問題演習</text>
  <text x="475" y="272" text-anchor="end" font-size="10" fill="#E8F0EC">従量課金</text>
  <text x="400" y="310" text-anchor="middle" font-size="11" fill="#1A1917">バランス重視 / 確実合格</text>
  <text x="400" y="328" text-anchor="middle" font-size="11" fill="#1A1917">3ヶ月かけて着実に対策</text>
  <rect x="305" y="344" width="190" height="44" rx="8" fill="#1B4F3A"/>
  <text x="400" y="364" text-anchor="middle" font-size="11" fill="#fff" font-weight="bold">一番おすすめ!</text>
  <text x="400" y="382" text-anchor="middle" font-size="10" fill="#E8F0EC">講義+問題+過去問+苦手分析</text>
  <!-- フル -->
  <rect x="540" y="55" width="230" height="360" rx="10" fill="#FEFEFC" stroke="#DDD9D2" stroke-width="1.5"/>
  <rect x="540" y="55" width="230" height="48" rx="10" fill="#E8E5DF"/>
  <text x="655" y="76" text-anchor="middle" font-size="14" font-weight="bold" fill="#1A1917">フルセット</text>
  <text x="655" y="95" text-anchor="middle" font-size="20" font-weight="bold" fill="#1A1917">約8〜10万円</text>
  <rect x="560" y="118" width="190" height="36" rx="6" fill="#E8F0EC" stroke="#1B4F3A" stroke-width="1"/>
  <text x="570" y="140" font-size="11" fill="#1B4F3A">&#x2713; Q-Assist+QBセット</text>
  <rect x="560" y="162" width="190" height="36" rx="6" fill="#E8F0EC" stroke="#1B4F3A" stroke-width="1"/>
  <text x="570" y="184" font-size="11" fill="#1B4F3A">&#x2713; THE内科専門医問題集</text>
  <rect x="560" y="206" width="190" height="36" rx="6" fill="#DCFCE7" stroke="#166534" stroke-width="1"/>
  <text x="570" y="228" font-size="11" fill="#166534">&#x2713; イヤーノート最新版</text>
  <rect x="560" y="250" width="190" height="36" rx="6" fill="#FEF3C7" stroke="#92400E" stroke-width="1"/>
  <text x="570" y="272" font-size="11" fill="#92400E">&#x2713; CareNeTV 3ヶ月</text>
  <rect x="560" y="294" width="190" height="36" rx="6" fill="#1B4F3A"/>
  <text x="570" y="316" font-size="11" fill="#fff">&#x2713; 内科ナビ問題演習</text>
  <text x="655" y="352" text-anchor="middle" font-size="11" fill="#1A1917">万全を期したい人</text>
  <text x="655" y="370" text-anchor="middle" font-size="11" fill="#1A1917">半年以上前から準備開始</text>
  <rect x="560" y="384" width="190" height="30" rx="8" fill="#E8E5DF"/>
  <text x="655" y="404" text-anchor="middle" font-size="11" fill="#1A1917">全教材で穴をなくす</text>
  <text x="400" y="440" text-anchor="middle" font-size="10" fill="#6B6760">© 内科ナビ naikanavi.com</text>
</svg>
