<svg xmlns="http://www.w3.org/2000/svg" viewBox="0 0 800 520" font-family="'Noto Sans JP', sans-serif">
  <rect width="800" height="520" fill="#F5F4F0" rx="12"/>
  <text x="400" y="36" text-anchor="middle" font-size="18" font-weight="bold" fill="#1A1917">予算別おすすめ教材セット</text>

  <!-- ミニマム -->
  <rect x="30" y="55" width="230" height="430" rx="10" fill="#FEFEFC" stroke="#DDD9D2" stroke-width="1.5"/>
  <rect x="30" y="55" width="230" height="56" rx="10" fill="#E8F0EC"/>
  <rect x="30" y="97" width="230" height="14" fill="#E8F0EC"/>
  <text x="145" y="78" text-anchor="middle" font-size="13" font-weight="bold" fill="#1B4F3A">ミニマムセット</text>
  <text x="145" y="100" text-anchor="middle" font-size="20" font-weight="bold" fill="#1B4F3A">約3万円</text>

  <rect x="46" y="122" width="198" height="30" rx="6" fill="#FEFEFC" stroke="#DDD9D2"/>
  <text x="58" y="141" font-size="11" fill="#1B4F3A">&#x2713;</text>
  <text x="72" y="142" font-size="12" fill="#1A1917">QBオンライン</text>
  <text x="228" y="142" text-anchor="end" font-size="11" fill="#6B6760">22,000円</text>

  <rect x="46" y="160" width="198" height="30" rx="6" fill="#E8F0EC" stroke="#86EFAC"/>
  <text x="58" y="179" font-size="11" fill="#1B4F3A">&#x2713;</text>
  <text x="72" y="180" font-size="12" fill="#1A1917">CareNeTV 2ヶ月</text>
  <text x="228" y="180" text-anchor="end" font-size="11" fill="#6B6760">11,000円</text>

  <rect x="46" y="198" width="198" height="30" rx="6" fill="#1B4F3A"/>
  <text x="58" y="217" font-size="11" fill="#E8F0EC">&#x2713;</text>
  <text x="72" y="218" font-size="12" font-weight="bold" fill="#fff">内科ナビ 問題演習</text>

  <text x="145" y="254" text-anchor="middle" font-size="11" fill="#6B6760">国試時代のYNがあれば代用可</text>

  <text x="145" y="284" text-anchor="middle" font-size="12" fill="#1A1917">忙しい人 / コスパ重視</text>
  <text x="145" y="304" text-anchor="middle" font-size="12" fill="#1A1917">1ヶ月集中で合格を目指す</text>

  <rect x="46" y="322" width="198" height="40" rx="8" fill="#1B4F3A"/>
  <text x="145" y="340" text-anchor="middle" font-size="13" font-weight="bold" fill="#fff">最低限で確実に合格!</text>
  <text x="145" y="356" text-anchor="middle" font-size="11" fill="#E8F0EC">問題演習+直前対策</text>

  <!-- スタンダード -->
  <rect x="285" y="55" width="230" height="430" rx="10" fill="#FEFEFC" stroke="#1B4F3A" stroke-width="2"/>
  <rect x="285" y="55" width="230" height="56" rx="10" fill="#1B4F3A"/>
  <rect x="285" y="97" width="230" height="14" fill="#1B4F3A"/>
  <text x="400" y="78" text-anchor="middle" font-size="13" font-weight="bold" fill="#fff">スタンダードセット</text>
  <text x="400" y="100" text-anchor="middle" font-size="20" font-weight="bold" fill="#fff">約5〜6万円</text>

  <rect x="301" y="122" width="198" height="30" rx="6" fill="#FEFEFC" stroke="#DDD9D2"/>
  <text x="313" y="141" font-size="11" fill="#1B4F3A">&#x2713;</text>
  <text x="327" y="142" font-size="12" fill="#1A1917">Q-Assist+QBセット</text>
  <text x="483" y="142" text-anchor="end" font-size="11" fill="#6B6760">44,000円</text>

  <rect x="301" y="160" width="198" height="30" rx="6" fill="#E8F0EC" stroke="#86EFAC"/>
  <text x="313" y="179" font-size="11" fill="#1B4F3A">&#x2713;</text>
  <text x="327" y="180" font-size="12" fill="#1A1917">CareNeTV 2ヶ月</text>
  <text x="483" y="180" text-anchor="end" font-size="11" fill="#6B6760">11,000円</text>

  <rect x="301" y="198" width="198" height="30" rx="6" fill="#FEFEFC" stroke="#DDD9D2"/>
  <text x="313" y="217" font-size="11" fill="#1B4F3A">&#x2713;</text>
  <text x="327" y="218" font-size="12" fill="#1A1917">学会過去問集</text>
  <text x="483" y="218" text-anchor="end" font-size="11" fill="#6B6760">約10,000円</text>

  <rect x="301" y="236" width="198" height="30" rx="6" fill="#1B4F3A"/>
  <text x="313" y="255" font-size="11" fill="#E8F0EC">&#x2713;</text>
  <text x="327" y="256" font-size="12" font-weight="bold" fill="#fff">内科ナビ 問題演習</text>

  <text x="400" y="294" text-anchor="middle" font-size="12" fill="#1A1917">バランス重視 / 確実合格</text>
  <text x="400" y="314" text-anchor="middle" font-size="12" fill="#1A1917">3ヶ月かけて着実に対策</text>

  <rect x="301" y="332" width="198" height="40" rx="8" fill="#1B4F3A"/>
  <text x="400" y="350" text-anchor="middle" font-size="13" font-weight="bold" fill="#fff">一番おすすめ!</text>
  <text x="400" y="366" text-anchor="middle" font-size="11" fill="#E8F0EC">講義+問題+過去問の王道</text>

  <!-- フルセット -->
  <rect x="540" y="55" width="230" height="430" rx="10" fill="#FEFEFC" stroke="#DDD9D2" stroke-width="1.5"/>
  <rect x="540" y="55" width="230" height="56" rx="10" fill="#E8F0EC"/>
  <rect x="540" y="97" width="230" height="14" fill="#E8F0EC"/>
  <text x="655" y="78" text-anchor="middle" font-size="13" font-weight="bold" fill="#1B4F3A">フルセット</text>
  <text x="655" y="100" text-anchor="middle" font-size="20" font-weight="bold" fill="#1B4F3A">約8〜10万円</text>

  <rect x="556" y="122" width="198" height="30" rx="6" fill="#FEFEFC" stroke="#DDD9D2"/>
  <text x="568" y="141" font-size="11" fill="#1B4F3A">&#x2713;</text>
  <text x="582" y="142" font-size="12" fill="#1A1917">Q-Assist+QBセット</text>

  <rect x="556" y="160" width="198" height="30" rx="6" fill="#FEFEFC" stroke="#DDD9D2"/>
  <text x="568" y="179" font-size="11" fill="#1B4F3A">&#x2713;</text>
  <text x="582" y="180" font-size="12" fill="#1A1917">THE内科専門医問題集</text>

  <rect x="556" y="198" width="198" height="30" rx="6" fill="#FEF3C7" stroke="#FCD34D"/>
  <text x="568" y="217" font-size="11" fill="#92400E">&#x2713;</text>
  <text x="582" y="218" font-size="12" fill="#1A1917">イヤーノート最新版</text>

  <rect x="556" y="236" width="198" height="30" rx="6" fill="#E8F0EC" stroke="#86EFAC"/>
  <text x="568" y="255" font-size="11" fill="#1B4F3A">&#x2713;</text>
  <text x="582" y="256" font-size="12" fill="#1A1917">CareNeTV 3ヶ月</text>

  <rect x="556" y="274" width="198" height="30" rx="6" fill="#1B4F3A"/>
  <text x="568" y="293" font-size="11" fill="#E8F0EC">&#x2713;</text>
  <text x="582" y="294" font-size="12" font-weight="bold" fill="#fff">内科ナビ 問題演習</text>

  <text x="655" y="332" text-anchor="middle" font-size="12" fill="#1A1917">万全を期したい人</text>
  <text x="655" y="352" text-anchor="middle" font-size="12" fill="#1A1917">半年以上前から準備開始</text>

  <rect x="556" y="370" width="198" height="32" rx="6" fill="#F0EDE7" stroke="#DDD9D2"/>
  <text x="655" y="391" text-anchor="middle" font-size="12" fill="#1A1917">全教材で穴をなくす</text>

  <!-- Footer -->
  <text x="400" y="510" text-anchor="middle" font-size="10" fill="#6B6760">© 内科ナビ naikanavi.com</text>
</svg>
